<svg width="52" height="52" viewBox="0 0 52 52" fill="none" xmlns="http://www.w3.org/2000/svg">
<circle cx="26" cy="26" r="26" fill="#237C9D"/>
<mask id="mask0_3024_5823" style="mask-type:alpha" maskUnits="userSpaceOnUse" x="0" y="0" width="52" height="52">
<circle cx="26" cy="26" r="26" fill="#237C9D"/>
</mask>
<g mask="url(#mask0_3024_5823)">
<path d="M8.92991 54.5219C8.87281 54.3021 8.86043 54.0509 8.89049 53.7672C8.89489 53.7092 8.9146 53.6418 8.92231 53.5825C11.9046 43.9942 16.8322 34.8519 23.3346 26.8104C29.9556 18.624 38.2158 11.5542 47.693 6.28425C27.0189 14.3228 9.42648 30.0358 0.0467042 50.292L0.0489905 50.293C-0.318244 51.1459 -0.561235 52.0473 -0.65596 52.9808C-0.779047 54.2125 -0.662571 55.4035 -0.311908 56.5595C0.395598 58.858 2.1986 60.6689 5.10165 61.9941L8.16472 63.3925L10.2221 59.9386L12.045 56.8772C11.0895 56.441 10.3627 56.0546 9.85885 55.7182C9.35604 55.3795 9.04709 54.9792 8.92763 54.5209L8.92991 54.5219Z" fill="#FF5F5F"/>
</g>
<path d="M31.2863 19.9471H23.1834V23.9317H29.4414V27.2479H23.1834V35.3509H19.7603V16.6309H31.2863V19.9471Z" fill="white"/>
</svg>
